<?xml version="1.0" encoding="UTF-8"?>
<svg id="Layer_2" data-name="Layer 2" xmlns="http://www.w3.org/2000/svg" viewBox="0 0 100.06 103.84">
  <defs>
    <style>
      .cls-1 {
        fill: none;
        stroke: #0bbf7d;
        stroke-linecap: round;
        stroke-linejoin: round;
        stroke-width: 4px;
      }
    </style>
  </defs>
  <g id="Layer_2-2" data-name="Layer 2">
    <g id="Dog">
      <path class="cls-1" d="m40.02,39.47c0,5.74-1.69,11.09-4.61,15.54-2.12,3.22-4.85,5.96-8.02,8.11h-.03c-1.54,1.04-3.16,1.9-4.88,2.61-2.58,2.21-5.44,4.05-8.57,5.44-1.04-1.04-2.03-2.12-2.95-3.26-.98-1.26-1.93-2.55-2.76-3.9-.18-.28-.34-.52-.49-.8-3.62-6.05-5.71-13.14-5.71-20.73,0-12.47,5.62-23.59,14.46-31.02,2.09.34,4.12.95,6.02,1.75,10.29,4.27,17.54,14.4,17.54,26.26Z"/>
      <path class="cls-1" d="m92.13,17.39c-2.89.98-5.99,1.5-9.18,1.5-2.98,0-5.84-.43-8.54-1.29-3.9-1.17-7.46-3.16-10.47-5.77-2.24-1.9-4.18-4.15-5.71-6.63h-.03c-4.82-2.06-10.13-3.19-15.72-3.19-9.09,0-17.47,3.01-24.23,8.05h-.03c-.58.46-1.17.92-1.75,1.41,2.09.34,4.12.95,6.02,1.75,10.29,4.27,17.54,14.4,17.54,26.26,0,5.74-1.69,11.09-4.61,15.54-2.12,3.22-4.85,5.96-8.02,8.11,12.47,1.97,23.68,7.68,32.52,15.91,2.27,2.12,4.39,4.42,6.33,6.88-.06-.71-.18-1.44-.31-2.15v-.03c-1.17-2.03-1.97-4.3-2.3-6.73-.09-.46-.12-.95-.15-1.47-.03-.43-.06-.89-.06-1.35,0-7.68,4.45-14.34,10.9-17.5h.09c2.18,0,4.27-.31,6.26-.86,1.11-.28,2.15-.68,3.16-1.14h.06c8.35-3.65,14.16-11.98,14.16-21.65,0-5.99-2.24-11.49-5.93-15.63Zm-36.15,9.8c-1.57,0-2.98-.64-3.96-1.72-.98-.98-1.57-2.33-1.57-3.81,0-3.04,2.49-5.53,5.53-5.53.58,0,1.11.09,1.63.28,2.27.68,3.9,2.79,3.9,5.25,0,3.04-2.49,5.53-5.53,5.53Z"/>
      <path class="cls-1" d="m66.43,89.52c0,3.75-.58,7.34-1.69,10.72-.12.4-.25.77-.37,1.14-.64.18-1.29.34-1.93.46-.12-.25-.28-.49-.4-.74-4.36-7.19-10.13-13.39-16.92-18.24-8.84-6.36-19.38-10.41-30.83-11.36-.12-.09-.25-.21-.37-.34,3.13-1.38,5.99-3.22,8.57-5.44,1.72-.71,3.35-1.57,4.88-2.61h.03c12.47,1.97,23.68,7.68,32.52,15.91,2.27,2.12,4.39,4.42,6.33,6.88.12,1.2.18,2.4.18,3.62Z"/>
      <path class="cls-1" d="m61.52,21.65c0,3.04-2.49,5.53-5.53,5.53-1.57,0-2.98-.64-3.96-1.72-.98-.98-1.57-2.33-1.57-3.81,0-3.04,2.49-5.53,5.53-5.53.58,0,1.11.09,1.63.28,2.27.68,3.9,2.79,3.9,5.25Z"/>
    </g>
  </g>
</svg>