<?xml version="1.0" encoding="UTF-8"?>
<svg id="Layer_2" data-name="Layer 2" xmlns="http://www.w3.org/2000/svg" viewBox="0 0 132 132">
  <defs>
    <style>
      .cls-1 {
        fill: #fcfcfc;
      }

      .cls-1, .cls-2 {
        stroke: #0bbf7d;
        stroke-linecap: round;
        stroke-linejoin: round;
        stroke-width: 4px;
      }

      .cls-2 {
        fill: none;
      }
    </style>
  </defs>
  <g id="Layer_2-2" data-name="Layer 2">
    <g>
      <g>
        <path class="cls-1" d="m130,66c0,12.47-3.56,24.08-9.7,33.9-5.13,8.2-12.07,15.14-20.24,20.3-2.67,1.69-5.5,3.19-8.45,4.45-3.01,1.32-6.17,2.43-9.4,3.26.12-.37.25-.74.37-1.14,2.89-.98,5.68-2.15,8.35-3.56,2.03-1.01,3.96-2.15,5.8-3.41,9.7-6.45,17.44-15.57,22.17-26.38v-.03c3.26-7.46,5.07-15.72,5.07-24.38,0-10.26-2.55-19.93-7.06-28.44-8.75-16.68-25.03-28.74-44.31-31.78-3.13-.52-6.36-.77-9.61-.77-19.47,0-36.82,9.12-47.97,23.37-4.94,6.23-8.66,13.51-10.84,21.41v.06c-1.29,4.67-2.03,9.61-2.15,14.68-.03-.49-.03-1.01-.03-1.54,0-3.44.28-6.82.8-10.1,1.38-8.75,4.55-16.92,9.12-24.11C23.25,13.88,43.24,2,66,2c3.04,0,6.05.21,8.97.64,20.61,2.86,38.02,15.54,47.48,33.17,4.82,8.97,7.55,19.26,7.55,30.19Z"/>
        <path class="cls-2" d="m123.98,69.01c0,8.66-1.81,16.92-5.07,24.38v.03c-4.73,10.81-12.47,19.93-22.17,26.38-1.84,1.26-3.78,2.4-5.8,3.41-2.67,1.41-5.47,2.58-8.35,3.56,1.11-3.38,1.69-6.97,1.69-10.72,0-1.23-.06-2.43-.18-3.62-.06-.71-.18-1.44-.31-2.15v-.03c-1.17-2.03-1.97-4.3-2.3-6.73-.09-.46-.12-.95-.15-1.47-.03-.43-.06-.89-.06-1.35,0-7.68,4.45-14.34,10.9-17.5h.09c2.18,0,4.27-.31,6.26-.86,1.11-.28,2.15-.68,3.16-1.14h.06c8.35-3.65,14.16-11.98,14.16-21.65,0-5.99-2.24-11.49-5.93-15.63-2.89.98-5.99,1.5-9.18,1.5-2.98,0-5.84-.43-8.54-1.29-3.9-1.17-7.46-3.16-10.47-5.77-2.24-1.9-4.18-4.15-5.71-6.63h-.03c-4.82-2.06-10.13-3.19-15.72-3.19-9.09,0-17.47,3.01-24.23,8.05h-.03c-.58.46-1.17.92-1.75,1.41-8.84,7.43-14.46,18.55-14.46,31.02,0,7.59,2.09,14.68,5.71,20.73.15.28.31.52.49.8.83,1.35,1.78,2.64,2.76,3.9.92,1.14,1.9,2.21,2.95,3.26.12.12.25.25.37.34-.34-.03-.64-.06-.98-.06-1.38-.09-2.76-.15-4.18-.15-2.43,0-4.82.15-7.19.43-2.79.31-5.53.83-8.17,1.5-.31.06-.61.15-.89.25-.09,0-.15.03-.21.06l-.09-.09c-.86-1.47-1.69-3.01-2.43-4.58-3.1-6.42-5.07-13.45-5.74-20.88v-.03c-.15-1.81-.25-3.62-.25-5.47,0-.49,0-.98.03-1.47.12-5.07.86-10.01,2.15-14.68v-.06c2.18-7.89,5.9-15.17,10.84-21.41,11.15-14.25,28.5-23.37,47.97-23.37,3.26,0,6.48.25,9.61.77,19.29,3.04,35.56,15.11,44.31,31.78,4.51,8.51,7.06,18.18,7.06,28.44Z"/>
      </g>
      <g id="Dog">
        <path class="cls-2" d="m57.86,66c0,5.74-1.69,11.09-4.61,15.54-2.12,3.22-4.85,5.96-8.02,8.11h-.03c-1.54,1.04-3.16,1.9-4.88,2.61-2.58,2.21-5.44,4.05-8.57,5.44-1.04-1.04-2.03-2.12-2.95-3.26-.98-1.26-1.93-2.55-2.76-3.9-.18-.28-.34-.52-.49-.8-3.62-6.05-5.71-13.14-5.71-20.73,0-12.47,5.62-23.59,14.46-31.02,2.09.34,4.12.95,6.02,1.75,10.29,4.27,17.54,14.4,17.54,26.26Z"/>
        <path class="cls-2" d="m109.98,43.92c-2.89.98-5.99,1.5-9.18,1.5-2.98,0-5.84-.43-8.54-1.29-3.9-1.17-7.46-3.16-10.47-5.77-2.24-1.9-4.18-4.15-5.71-6.63h-.03c-4.82-2.06-10.13-3.19-15.72-3.19-9.09,0-17.47,3.01-24.23,8.05h-.03c-.58.46-1.17.92-1.75,1.41,2.09.34,4.12.95,6.02,1.75,10.29,4.27,17.54,14.4,17.54,26.26,0,5.74-1.69,11.09-4.61,15.54-2.12,3.22-4.85,5.96-8.02,8.11,12.47,1.97,23.68,7.68,32.52,15.91,2.27,2.12,4.39,4.42,6.33,6.88-.06-.71-.18-1.44-.31-2.15v-.03c-1.17-2.03-1.97-4.3-2.3-6.73-.09-.46-.12-.95-.15-1.47-.03-.43-.06-.89-.06-1.35,0-7.68,4.45-14.34,10.9-17.5h.09c2.18,0,4.27-.31,6.26-.86,1.11-.28,2.15-.68,3.16-1.14h.06c8.35-3.65,14.16-11.98,14.16-21.65,0-5.99-2.24-11.49-5.93-15.63Zm-36.15,9.8c-1.57,0-2.98-.64-3.96-1.72-.98-.98-1.57-2.33-1.57-3.81,0-3.04,2.49-5.53,5.53-5.53.58,0,1.11.09,1.63.28,2.27.68,3.9,2.79,3.9,5.25,0,3.04-2.49,5.53-5.53,5.53Z"/>
        <path class="cls-2" d="m80.28,128.37c-4.61,1.07-9.37,1.63-14.28,1.63-.52,0-1.04,0-1.54-.03-.49.03-.98.03-1.47.03-18.98,0-35.96-8.69-47.11-22.3-2-2.4-3.81-4.94-5.37-7.65.06-.03.12-.06.21-.06.28-.09.58-.18.89-.25,2.64-.68,5.37-1.2,8.17-1.5,2.36-.28,4.76-.43,7.19-.43,1.41,0,2.79.06,4.18.15.34,0,.64.03.98.06,11.45.95,21.99,5.01,30.83,11.36,6.79,4.85,12.56,11.06,16.92,18.24.12.25.28.49.4.74Z"/>
        <path class="cls-2" d="m84.27,116.06c0,3.75-.58,7.34-1.69,10.72-.12.4-.25.77-.37,1.14-.64.18-1.29.34-1.93.46-.12-.25-.28-.49-.4-.74-4.36-7.19-10.13-13.39-16.92-18.24-8.84-6.36-19.38-10.41-30.83-11.36-.12-.09-.25-.21-.37-.34,3.13-1.38,5.99-3.22,8.57-5.44,1.72-.71,3.35-1.57,4.88-2.61h.03c12.47,1.97,23.68,7.68,32.52,15.91,2.27,2.12,4.39,4.42,6.33,6.88.12,1.2.18,2.4.18,3.62Z"/>
        <path class="cls-2" d="m79.36,48.19c0,3.04-2.49,5.53-5.53,5.53-1.57,0-2.98-.64-3.96-1.72-.98-.98-1.57-2.33-1.57-3.81,0-3.04,2.49-5.53,5.53-5.53.58,0,1.11.09,1.63.28,2.27.68,3.9,2.79,3.9,5.25Z"/>
      </g>
    </g>
  </g>
</svg>